<?xml version="1.0" encoding="UTF-8" standalone="no"?>
<!-- Created with Inkscape (http://www.inkscape.org/) -->

<svg
   xmlns:dc="http://purl.org/dc/elements/1.1/"
   xmlns:cc="http://creativecommons.org/ns#"
   xmlns:rdf="http://www.w3.org/1999/02/22-rdf-syntax-ns#"
   xmlns:svg="http://www.w3.org/2000/svg"
   xmlns="http://www.w3.org/2000/svg"
   xmlns:sodipodi="http://sodipodi.sourceforge.net/DTD/sodipodi-0.dtd"
   xmlns:inkscape="http://www.inkscape.org/namespaces/inkscape"
   width="712.09375"
   height="896.31256"
   id="svg2"
   version="1.1"
   inkscape:version="0.48.4 r9939"
   sodipodi:docname="Герб Балашихи.svg">
  <defs
     id="defs4">
    <inkscape:path-effect
       effect="spiro"
       id="path-effect3801"
       is_visible="true" />
    <inkscape:path-effect
       effect="spiro"
       id="path-effect3797"
       is_visible="true" />
  </defs>
  <sodipodi:namedview
     id="base"
     pagecolor="#ffffff"
     bordercolor="#666666"
     borderopacity="1.0"
     inkscape:pageopacity="0.0"
     inkscape:pageshadow="2"
     inkscape:zoom="0.70710678"
     inkscape:cx="636.26611"
     inkscape:cy="574.81146"
     inkscape:document-units="px"
     inkscape:current-layer="layer1"
     showgrid="false"
     showguides="true"
     inkscape:guide-bbox="true"
     inkscape:snap-grids="true"
     inkscape:snap-page="false"
     fit-margin-top="0"
     fit-margin-left="0"
     fit-margin-right="0"
     fit-margin-bottom="0"
     inkscape:showpageshadow="false"
     showborder="false"
     inkscape:window-width="1280"
     inkscape:window-height="738"
     inkscape:window-x="-8"
     inkscape:window-y="-8"
     inkscape:window-maximized="1" />
  <metadata
     id="metadata7">
    <rdf:RDF>
      <cc:Work
         rdf:about="">
        <dc:format>image/svg+xml</dc:format>
        <dc:type
           rdf:resource="http://purl.org/dc/dcmitype/StillImage" />
        <dc:title />
      </cc:Work>
    </rdf:RDF>
  </metadata>
  <g
     inkscape:label="Layer 1"
     inkscape:groupmode="layer"
     id="layer1"
     transform="translate(-18.9375,-23.187448)">
    <g
       id="g4291"
       transform="translate(-0.06431565,-0.28836149)" />
    <path
       style="fill:#ff0000;stroke:#000000;stroke-width:1px;stroke-linecap:butt;stroke-linejoin:miter;stroke-opacity:1"
       d="m 19.4375,23.6875 0,737.625 c 0,45.6625 35.78798,78.78125 78.8125,78.78125 l 206.21875,0 C 336.59583,840.09375 375,867.57938 375,919.5 c 0,-51.91569 37.95583,-78.33838 70.53125,-79.375 l 206.21875,0 c 43.02452,0 78.78125,-33.15 78.78125,-78.8125 l 0,-737.59375 C 495.60336,23.732592 233.08222,23.685668 19.4375,23.6875 z"
       id="path2998"
       inkscape:connector-curvature="0"
       sodipodi:nodetypes="csssccsscc" />
    <g
       id="g4214"
       transform="translate(2.0000012,3.75)">
      <path
         style="fill:#e88b08;fill-opacity:1;stroke:#000000;stroke-width:1px;stroke-linecap:butt;stroke-linejoin:miter;stroke-opacity:1"
         d="M 519.82322,157.12236 460.25,426.86218 545.8125,172.48718 625.5,412.11218 572.07322,157.55986 z"
         id="path3815"
         inkscape:connector-curvature="0"
         sodipodi:nodetypes="cccccc" />
      <path
         sodipodi:nodetypes="cccc"
         inkscape:connector-curvature="0"
         id="path3021"
         d="M 536.78243,179.96919 460.25,426.64343 517.38119,168.25774 c 3.86387,5.33844 10.86016,9.34215 19.40124,11.71145 z"
         style="fill:#ffff00;stroke:none" />
      <path
         sodipodi:nodetypes="cccc"
         inkscape:connector-curvature="0"
         id="path3791"
         d="m 548.75,180.79968 c 6.37113,-0.13241 12.96486,-2.20471 18.875,-5.3125 l 57.85514,236.58981 z"
         style="fill:#ffff00;stroke:none" />
      <path
         sodipodi:nodetypes="cccccc"
         inkscape:connector-curvature="0"
         id="path3009"
         d="M 519.82322,157.12236 460.25,426.86218 545.8125,172.48718 625.5,412.11218 572.07322,157.55986 z"
         style="fill:none;stroke:#000000;stroke-width:1px;stroke-linecap:butt;stroke-linejoin:miter;stroke-opacity:1" />
      <path
         transform="matrix(0.91935484,0,0,0.91935484,45.676816,12.070134)"
         d="m 566.39254,140.90155 c 0,12.10625 -9.81406,21.92031 -21.92031,21.92031 -12.10625,0 -21.92031,-9.81406 -21.92031,-21.92031 0,-12.10625 9.81406,-21.92031 21.92031,-21.92031 12.10625,0 21.92031,9.81406 21.92031,21.92031 z"
         sodipodi:ry="21.920311"
         sodipodi:rx="21.920311"
         sodipodi:cy="140.90155"
         sodipodi:cx="544.47223"
         id="path3818"
         style="fill:#e88b08;fill-opacity:1;stroke:none"
         sodipodi:type="arc" />
      <path
         transform="matrix(1.1881188,0,0,1.1881188,-94.678214,-30.729024)"
         d="m 553.125,146.73718 c 0,6.9726 -5.65241,12.625 -12.625,12.625 -6.97259,0 -12.625,-5.6524 -12.625,-12.625 0,-6.97259 5.65241,-12.625 12.625,-12.625 6.97259,0 12.625,5.65241 12.625,12.625 z"
         sodipodi:ry="12.625"
         sodipodi:rx="12.625"
         sodipodi:cy="146.73718"
         sodipodi:cx="540.5"
         id="path3013"
         style="fill:#ffff00"
         sodipodi:type="arc" />
      <path
         id="path3007"
         d="m 546.25,110.46875 c -17.19564,0 -31.15625,13.92936 -31.15625,31.125 0,17.19564 13.96061,31.15625 31.15625,31.15625 17.19564,0 31.125,-13.96061 31.125,-31.15625 0,-17.19564 -13.92936,-31.125 -31.125,-31.125 z m 0,13.09375 c 9.96852,0 18.03125,8.06273 18.03125,18.03125 0,9.96852 -8.06273,18.0625 -18.03125,18.0625 -9.96852,0 -18.0625,-8.09398 -18.0625,-18.0625 0,-9.96852 8.09398,-18.03125 18.0625,-18.03125 z"
         style="fill:#ffff00;stroke:#000000;stroke-width:1;stroke-linecap:butt;stroke-linejoin:miter;stroke-miterlimit:4;stroke-opacity:1;stroke-dasharray:none;marker-start:none"
         inkscape:connector-curvature="0" />
    </g>
    <g
       id="g3962"
       transform="translate(0.2676381,0.28300841)">
      <path
         sodipodi:nodetypes="czcc"
         inkscape:connector-curvature="0"
         id="path3805"
         d="m 147.07821,366.82216 c -9.83522,2.72815 -46.09246,9.16798 -50.558139,-36.416 -4.465677,-45.58399 12.571439,-62.40657 2.160539,-105.37668 46.30963,43.29728 101.97507,94.1974 48.3976,141.79268 z"
         style="fill:#e88b08;fill-opacity:1;stroke:#000000;stroke-width:1px;stroke-linecap:butt;stroke-linejoin:miter;stroke-opacity:1" />
      <path
         sodipodi:nodetypes="ccsc"
         inkscape:connector-curvature="0"
         id="path3807"
         d="m 184.55487,321.56733 c 39.24907,-27.40087 19.21339,-102.62691 -15.22424,-133.70384 8.46535,31.21573 -40.95567,88.0247 -18.36333,126.27922 8.49153,14.3783 26.74673,11.03767 33.58757,7.42462 z"
         style="fill:#e88b08;fill-opacity:1;stroke:#000000;stroke-width:1px;stroke-linecap:butt;stroke-linejoin:miter;stroke-opacity:1" />
      <path
         sodipodi:nodetypes="ccsc"
         inkscape:connector-curvature="0"
         id="path3809"
         d="m 242.89118,269.94853 c 43.07924,-19.61627 30.23481,-95.69323 7.07107,-123.39013 1.32886,39.35661 -25.99484,40.61561 -35.0533,88.43072 -1.0039,5.29909 -3.35477,39.3647 27.98223,34.95941 z"
         style="fill:#e88b08;fill-opacity:1;stroke:#000000;stroke-width:1px;stroke-linecap:butt;stroke-linejoin:miter;stroke-opacity:1" />
      <path
         sodipodi:nodetypes="ccsc"
         inkscape:connector-curvature="0"
         id="path3811"
         d="m 314.30896,234.23964 c 34.80603,-9.80423 68.73054,-58.77687 33.58758,-123.74369 0.38025,31.4529 -47.43554,50.71234 -51.97235,101.11627 -1.1263,12.51313 8.14092,21.46903 18.38477,22.62742 z"
         style="fill:#e88b08;fill-opacity:1;stroke:#000000;stroke-width:1px;stroke-linecap:butt;stroke-linejoin:miter;stroke-opacity:1" />
      <path
         sodipodi:nodetypes="ccsc"
         inkscape:connector-curvature="0"
         id="path3813"
         d="m 386.0803,218.50651 c 41.00624,29.43944 95.91814,-14.75743 100.40916,-63.63961 -5.6893,4.90913 -12.48558,10.70393 -30.93592,12.02082 -50.17893,3.58149 -76.49102,15.1072 -69.47324,51.61879 z"
         style="fill:#e88b08;fill-opacity:1;stroke:#000000;stroke-width:1px;stroke-linecap:butt;stroke-linejoin:miter;stroke-opacity:1" />
      <path
         sodipodi:nodetypes="ccsc"
         inkscape:connector-curvature="0"
         id="path3820"
         d="m 337.75,252.11219 c 29.95266,-34.68199 100.56099,7.74007 113.23483,30.71967 -24.02126,-3.64429 -63.01577,15.45197 -96.23483,4.28033 -13.415,-4.51149 -22.74768,-14.09418 -17,-35 z"
         style="fill:#e88b08;fill-opacity:1;stroke:#000000;stroke-width:1px;stroke-linecap:butt;stroke-linejoin:miter;stroke-opacity:1" />
      <path
         sodipodi:nodetypes="ccsc"
         inkscape:connector-curvature="0"
         id="path3824"
         d="m 254.5,297.36219 c 23.04623,-38.35631 107.31851,-2.78735 128.75,23.74999 -39.76776,-7.12177 -43.11176,25.65512 -98,15.5 -26.88482,-4.97408 -32.05266,-27.08759 -30.75,-39.24999 z"
         style="fill:#e88b08;fill-opacity:1;stroke:#000000;stroke-width:1px;stroke-linecap:butt;stroke-linejoin:miter;stroke-opacity:1" />
      <path
         sodipodi:nodetypes="cccc"
         inkscape:connector-curvature="0"
         id="path3826"
         d="m 164,418.36218 c 4.44796,-49.96547 96.31729,-73.11541 135,-51.5 -37.68972,2.79993 -33.15849,42.89704 -92,64.5 -13.9234,4.72272 -37.25904,-1.40994 -43,-13 z"
         style="fill:#e88b08;fill-opacity:1;stroke:#000000;stroke-width:1px;stroke-linecap:butt;stroke-linejoin:miter;stroke-opacity:1" />
      <path
         sodipodi:nodetypes="csccccsccscccccsccsscccc"
         inkscape:connector-curvature="0"
         id="path3828"
         d="m 129.27554,507.68286 c 0.14024,-60.71858 9.02188,-72.20757 14.62006,-105.79928 4.86585,-29.19739 -12.55129,-94.56325 -28.1372,-140.06678 23.94895,35.87283 37.551,112.08827 34.39088,133.77187 55.54809,-83.99218 30.09811,-169.61073 23.76345,-196.11122 24.66534,45.4995 13.01673,132.34293 9.84664,140.65143 14.70041,-17.11449 34.45498,-34.76662 46.41752,-51.70377 25.39994,-35.96245 24.22301,-96.38459 22.45998,-127.50275 14.84895,85.61503 -14.22921,120.58847 -13.98833,124.93608 24.55882,-21.8162 54.30422,-29.11457 73.71588,-51.79558 7.83257,-9.15175 29.23422,-46.77975 35.7089,-97.93428 2.61658,54.41215 -31.85096,102.17693 -36.59278,106.77312 76.05646,-41.67246 102.14803,-19.41257 163.39496,-76.41563 -29.17591,50.32409 -100.95382,45.40889 -173.76324,86.9386 5.13015,-0.44007 61.49012,-12.38091 127.95816,15.70584 -45.22604,-12.99473 -88.9536,-13.17238 -118.82732,-12.08668 -35.36792,1.28537 -73.57065,41.18468 -77.78758,43.50699 28.2138,-10.86293 86.97842,-18.57655 136.99,12.93503 -54.91775,-20.66775 -77.77683,-16.70343 -93.67388,-16.70343 -57.28846,0 -93.01878,57.35539 -107.73023,84.14939 -11.82903,21.54424 -20.43287,43.56713 -20.43287,54.65648 31.31698,-38.04086 52.42404,-60.54652 135.94127,-70.18035 -63.47709,11.00231 -152.73082,38.53022 -138.8115,142.69541 -2.5706,0.10119 -8.96257,0.57954 -15.46277,-0.42049 z"
         style="fill:#e88b08;fill-opacity:1;stroke:#000000;stroke-width:1px;stroke-linecap:butt;stroke-linejoin:miter;stroke-opacity:1" />
      <path
         sodipodi:nodetypes="ccc"
         inkscape:connector-curvature="0"
         id="path3834"
         d="m 100.875,328.23718 c 15.74648,-0.96899 40.28028,33.71972 36.625,37.375 -36.52899,1.03222 -37.677636,-26.20673 -36.625,-37.375 z"
         style="fill:#ffff00;stroke:none" />
      <path
         sodipodi:nodetypes="cccc"
         inkscape:connector-curvature="0"
         id="path3836"
         d="m 100,319.36218 c -0.375271,-2.90839 -0.331398,-6.32045 0.125,-9.0625 12.34968,0.89562 35.367,12.522 39.5,46.4375 -2.2659,-13.25196 -26.45167,-35.71363 -39.625,-37.375 z"
         style="fill:#ffff00;stroke:none" />
      <path
         sodipodi:nodetypes="cccc"
         inkscape:connector-curvature="0"
         id="path3840"
         d="m 101.375,292.92468 c 20.40727,4.63849 27.39025,19.42372 28.375,25.6875 -5.79278,-5.58278 -14.05206,-13.6823 -28.25,-17.0625 -0.43402,-2.28648 -0.35273,-5.3459 -0.125,-8.625 z"
         style="fill:#ffff00;stroke:none" />
      <path
         sodipodi:nodetypes="cccc"
         inkscape:connector-curvature="0"
         id="path3842"
         d="m 102.53048,283.87468 c 2.77287,-13.19904 2.3969,-33.41045 1.90165,-43.21042 8.81327,17.94866 14.04909,36.16074 20.55788,54.39545 -8.34066,-6.32213 -13.81648,-9.11886 -22.45953,-11.18503 z"
         style="fill:#ffff00;stroke:none" />
      <path
         sodipodi:nodetypes="cccc"
         inkscape:connector-curvature="0"
         id="path3844"
         d="M 107.3125,236.86218 128,256.98718 c -3.05965,2.79693 -4.55107,11.52399 -4.75,15.875 -5.21869,-11.85405 -10.10407,-22.91647 -15.9375,-36 z"
         style="fill:#ffff00;stroke:none" />
      <path
         sodipodi:nodetypes="cccc"
         inkscape:connector-curvature="0"
         id="path3846"
         d="m 134.25,263.61218 5.375,5.25 c -4.73983,2.35021 -6.64659,9.96553 -7.5,14.125 -2.38746,-8.97484 -0.19665,-15.98597 2.125,-19.375 z"
         style="fill:#ffff00;stroke:none" />
      <path
         sodipodi:nodetypes="cccccc"
         inkscape:connector-curvature="0"
         id="path3848"
         d="m 140.18392,283.20678 3.18198,1.06066 c -0.4662,1.87198 -3.40917,29.61853 20.32932,45.60839 l 0.35355,9.36917 c -3.40659,11.61492 -8.93059,16.34826 -14.14213,22.09708 -2.07611,-38.0093 -15.86658,-44.53596 -9.72272,-78.1353 z"
         style="fill:#ffff00;stroke:none" />
      <path
         sodipodi:nodetypes="ccc"
         inkscape:connector-curvature="0"
         id="path3850"
         d="m 151.75,264.61219 c 14.01492,10.4212 27.36253,21.99503 27,57.24999 -19.57865,-0.57069 -36.30268,-6.13698 -27,-57.24999 z"
         style="fill:#ffff00;stroke:none" />
      <path
         sodipodi:nodetypes="cccc"
         inkscape:connector-curvature="0"
         id="path3852"
         d="m 154.50283,257.04383 c 0.77052,-2.18473 0.7911,-3.7963 3.71231,-8.13173 21.67833,13.41514 23.53249,32.45506 25.27907,44.72451 -8.5315,-19.05829 -17.01163,-29.01259 -28.99138,-36.59278 z"
         style="fill:#ffff00;stroke:none" />
      <path
         sodipodi:nodetypes="cccc"
         inkscape:connector-curvature="0"
         id="path3854"
         d="m 160.25,242.61218 3.5,-8.125 c 15.61286,11.45372 17.48241,22.63769 19.5,34 -4.49325,-7.27394 -5.11857,-15.71779 -23,-25.875 z"
         style="fill:#ffff00;stroke:none" />
      <path
         sodipodi:nodetypes="cccc"
         inkscape:connector-curvature="0"
         id="path3856"
         d="m 166.5,227.98718 c 6.09814,-13.70635 5.46362,-17.56588 6.625,-23.25 3.44513,12.66411 6.92787,29.16299 8.75,40 -4.77016,-8.6456 -10.88682,-13.36618 -15.375,-16.75 z"
         style="fill:#ffff00;stroke:none" />
      <path
         sodipodi:nodetypes="cccc"
         inkscape:connector-curvature="0"
         id="path3858"
         d="m 178.36768,201.97789 c 2.98302,2.63786 6.79254,7.8824 9.54594,12.81631 -1.69809,2.93553 -2.27746,6.52012 -2.82842,9.19239 -1.10265,-7.90988 -4.53951,-15.17216 -6.71752,-22.0087 z"
         style="fill:#ffff00;stroke:none" />
      <path
         sodipodi:nodetypes="cccc"
         inkscape:connector-curvature="0"
         id="path3860"
         d="m 190.47688,220.62783 3.62393,7.24785 c -4.4991,4.44043 -5.0756,9.3628 -5.92202,13.34664 -0.19802,-6.47058 -1.45719,-13.63055 2.29809,-20.59449 z"
         style="fill:#ffff00;stroke:none" />
      <path
         sodipodi:nodetypes="ccc"
         inkscape:connector-curvature="0"
         id="path3862"
         d="m 197.25,235.86219 c -11.59434,26.15112 -3.97701,48.26237 -7,77.74999 2.59514,-3.92964 23.62245,-19.71381 7,-77.74999 z"
         style="fill:#ffff00;stroke:none" />
      <path
         sodipodi:nodetypes="ccc"
         inkscape:connector-curvature="0"
         id="path3864"
         d="m 220.875,224.48719 c -1.78801,15.14424 -9.06175,35.5865 16.375,43.875 -1.29491,-22.37408 -6.14362,-38.48686 -16.375,-43.875 z"
         style="fill:#ffff00;stroke:none" />
      <path
         sodipodi:nodetypes="cccc"
         inkscape:connector-curvature="0"
         id="path3868"
         d="m 223.875,215.86218 c 0.44612,-2.14186 2.09133,-5.66166 3.75,-7.375 13.40413,10.25535 17.66248,29.17598 15.375,42 -1.484,-10.61425 -8.1534,-27.24982 -19.125,-34.625 z"
         style="fill:#ffff00;stroke:none" />
      <path
         sodipodi:nodetypes="cccc"
         inkscape:connector-curvature="0"
         id="path3870"
         d="m 231.875,201.36218 c 0.36393,-1.8653 3.54971,-6.63899 5.125,-7.5 8.26214,6.1377 11.88727,17.75531 11.375,32.375 -2.46988,-5.14097 -7.77401,-18.80682 -16.5,-24.875 z"
         style="fill:#ffff00;stroke:none" />
      <path
         sodipodi:nodetypes="cccc"
         inkscape:connector-curvature="0"
         id="path3872"
         d="m 241.0625,187.04968 c 5.18243,-7.72323 7.70671,-15.294 8.5625,-20.6875 2.58568,5.33732 1.09432,26.04194 1.625,39.125 -2.60568,-7.1878 -4.73919,-12.04123 -10.1875,-18.4375 z"
         style="fill:#ffff00;stroke:none" />
      <path
         sodipodi:nodetypes="cccc"
         inkscape:connector-curvature="0"
         id="path3874"
         d="m 258.44753,201.53595 c 0.11098,-15.78518 -1.85494,-29.49347 -4.06587,-42.95674 3.36291,3.93293 7.43683,12.01342 13.61181,32.35014 -4.75228,5.37415 -7.52754,8.69643 -9.54594,10.6066 z"
         style="fill:#ffff00;stroke:none" />
      <path
         sodipodi:nodetypes="ccccc"
         inkscape:connector-curvature="0"
         id="path3876"
         d="m 258.25,211.98718 c 6.03001,-7.56682 8.53541,-10.14044 10.625,-12.125 l 1,11.625 c -3.78989,2.78458 -7.79537,6.43147 -12.25,11.875 z"
         style="fill:#ffff00;stroke:none" />
      <path
         sodipodi:nodetypes="ccc"
         inkscape:connector-curvature="0"
         id="path3878"
         d="m 269.625,222.98718 c -3.33883,28.54033 -12.55742,35.84822 -21.75,43.25 5.25019,-25.08234 12.49981,-39.50099 21.75,-43.25 z"
         style="fill:#ffff00;stroke:none" />
      <path
         sodipodi:nodetypes="ccc"
         inkscape:connector-curvature="0"
         id="path3880"
         d="m 303.17203,194.99521 c 11.0669,10.86009 10.37847,23.34161 7.95495,36.06245 -14.05232,-5.55017 -10.908,-20.86059 -7.95495,-36.06245 z"
         style="fill:#ffff00;stroke:none" />
      <path
         sodipodi:nodetypes="cccc"
         inkscape:connector-curvature="0"
         id="path3882"
         d="m 306.70757,185.80282 c 1.65434,-4.03529 3.73389,-7.96429 6.71751,-11.66726 6.54398,5.65124 19.60966,24.5157 6.89429,44.54773 -0.72532,-14.17618 -6.07621,-25.9659 -13.6118,-32.88047 z"
         style="fill:#ffff00;stroke:none" />
      <path
         sodipodi:nodetypes="cccc"
         inkscape:connector-curvature="0"
         id="path3884"
         d="m 318.125,166.98718 8.125,-10.125 c 9.53165,9.27365 7.34073,21.84427 6.625,34 -2.66449,-5.35373 -6.48281,-19.43484 -14.75,-23.875 z"
         style="fill:#ffff00;stroke:none" />
      <path
         sodipodi:nodetypes="cccc"
         inkscape:connector-curvature="0"
         id="path3886"
         d="m 329.5,152.86218 c 2.25204,-3.0478 4.05396,-4.74521 6,-6.87499 7.19056,7.39694 5.61406,16.47386 4,24.49999 -2.68489,-7.03451 -6.03711,-14.74397 -10,-17.625 z"
         style="fill:#ffff00;stroke:none" />
      <path
         sodipodi:nodetypes="cccc"
         inkscape:connector-curvature="0"
         id="path3888"
         d="m 339.125,139.48719 c 3.51193,-3.74523 5.5001,-8.09996 7.375,-12.5 -0.17286,11.32832 -0.42668,16.98934 -2.375,24.99999 -1,-6.91666 -2.33333,-10.24999 -5,-12.49999 z"
         style="fill:#ffff00;stroke:none" />
      <path
         sodipodi:nodetypes="cccc"
         inkscape:connector-curvature="0"
         id="path3890"
         d="m 351.78562,125.87553 c 4.64078,5.16268 8.17928,15.74489 8.83884,40.48186 -4.8319,2.15267 -9.66379,4.07164 -14.49569,10.42982 6.90841,-33.90691 1.38577,-42.95838 5.65685,-50.91168 z"
         style="fill:#ffff00;stroke:none" />
      <path
         sodipodi:nodetypes="cccc"
         inkscape:connector-curvature="0"
         id="path3892"
         d="m 340.25,193.86218 c 5.90404,-4.86108 11.67891,-8.30132 17.25,-9.5 l -0.875,-6 c -7.81551,4.33472 -14.19399,9.17663 -16.375,15.5 z"
         style="fill:#ffff00;stroke:none" />
      <path
         sodipodi:nodetypes="ccc"
         inkscape:connector-curvature="0"
         id="path3894"
         d="m 320.875,231.11218 c 0,0 14.25,-26.625 29.375,-31.125 -2.625,17.25 -29.375,31.125 -29.375,31.125 z"
         style="fill:#ffff00;stroke:none" />
      <path
         sodipodi:nodetypes="ccc"
         inkscape:connector-curvature="0"
         id="path3896"
         d="m 386.8303,212.42288 c -1.60415,-20.09713 15.12768,-25.63335 28.8146,-33.58757 -0.51729,0.42426 -0.73219,29.10113 -28.8146,33.58757 z"
         style="fill:#ffff00;stroke:none" />
      <path
         sodipodi:nodetypes="cccc"
         inkscape:connector-curvature="0"
         id="path3898"
         d="m 410.47549,205.42504 c 11.68995,-9.30931 10.00805,-25.83668 10.96015,-28.99138 0.77471,-0.77471 6.43408,-0.9919 8.31034,-0.79994 0.44589,11.32695 -5.68716,25.1535 -19.27049,29.79132 z"
         style="fill:#ffff00;stroke:none" />
      <path
         sodipodi:nodetypes="cccc"
         inkscape:connector-curvature="0"
         id="path3900"
         d="m 427.26927,198.70752 c 0,0 11.07208,-9.47295 10.96016,-25.27907 2.72735,-1.58601 4.83383,-1.32908 8.87804,-1.28921 -0.47127,20.83196 -19.8382,26.56828 -19.8382,26.56828 z"
         style="fill:#ffff00;stroke:none" />
      <path
         sodipodi:nodetypes="cccc"
         inkscape:connector-curvature="0"
         id="path3902"
         d="m 451.375,183.61218 c 2.43089,-4.14093 3.81718,-7.69402 4.25,-13.5 7.94853,0.0588 10.70996,-1.9334 15,-2.75 -6.41667,7.08246 -12.58333,11.51256 -19.25,16.25 z"
         style="fill:#ffff00;stroke:none" />
      <path
         sodipodi:nodetypes="cccc"
         inkscape:connector-curvature="0"
         id="path3904"
         d="m 466.24854,182.62085 c 8.82271,-10.49377 9.94009,-13.05332 11.75565,-15.55636 0.0767,4.68459 -1.66401,11.13694 -4.15426,15.46797 -1.80218,-0.25984 -3.01956,0.11659 -7.60139,0.0884 z"
         style="fill:#ffff00;stroke:none" />
      <path
         sodipodi:nodetypes="ccccc"
         inkscape:connector-curvature="0"
         id="path3906"
         d="m 434.5,203.23718 c 8.9845,-3.88797 17.05028,-8.27127 23.75,-13.5 3.95809,-0.95737 7.62007,-0.73029 11.25,-0.375 -3.87383,6.40493 -8.15973,12.75099 -16.625,18.5 -5.85815,-2.76137 -11.93009,-4.54555 -18.375,-4.625 z"
         style="fill:#ffff00;stroke:none" />
      <path
         sodipodi:nodetypes="cccc"
         inkscape:connector-curvature="0"
         id="path3908"
         d="m 413.65747,211.87739 c 15.38022,-6.66699 24.1931,-2.77934 33.14563,0.88388 -2.59068,2.8789 -5.81424,5.33587 -10.51822,6.8059 -7.39268,-4.95993 -15.00346,-6.43012 -22.62741,-7.68978 z"
         style="fill:#ffff00;stroke:none" />
      <path
         sodipodi:nodetypes="ccc"
         inkscape:connector-curvature="0"
         id="path3910"
         d="m 393.85848,219.83234 c 10.56542,7.50636 21.81137,5.43211 33.05724,4.77297 -6.21618,-4.13459 -11.07037,-9.03308 -33.05724,-4.77297 z"
         style="fill:#ffff00;stroke:none" />
      <path
         sodipodi:nodetypes="ccc"
         inkscape:connector-curvature="0"
         id="path3912"
         d="m 345.24488,248.02822 c 15.95164,-7.48716 29.83108,-6.40918 42.24963,0.70711 -14.17279,2.14319 -28.31345,3.43292 -42.24963,-0.70711 z"
         style="fill:#ffff00;stroke:none" />
      <path
         sodipodi:nodetypes="cccc"
         inkscape:connector-curvature="0"
         id="path3914"
         d="m 382.5,253.23718 c 5.98704,-0.47765 12.91555,-0.41731 16.75,-2.125 3.94106,1.53735 3.80787,2.05613 5.375,3 -7.5632,1.77854 -14.89388,0.9993 -22.125,-0.875 z"
         style="fill:#ffff00;stroke:none" />
      <path
         sodipodi:nodetypes="cccc"
         inkscape:connector-curvature="0"
         id="path3916"
         d="m 405.15273,259.06799 c 4.20775,0.15143 8.02984,0.0136 10.90977,-0.83081 4.20833,1.64813 10.10417,5.25219 14.3125,8.875 -11.8556,-4.23864 -18.37571,-6.0677 -25.22227,-8.04419 z"
         style="fill:#ffff00;stroke:none" />
      <path
         sodipodi:nodetypes="cccc"
         inkscape:connector-curvature="0"
         id="path3918"
         d="m 408.625,265.98718 c 12.18927,-0.0609 22.38724,7.44515 33,13.375 -7.1415,0.31973 -14.32977,0.56149 -20.5,2.5 -3.00186,-7.62129 -7.90766,-11.43468 -12.5,-15.875 z"
         style="fill:#ffff00;stroke:none" />
      <path
         sodipodi:nodetypes="cccc"
         inkscape:connector-curvature="0"
         id="path3920"
         d="m 387.875,263.36218 c 12.91572,2.9805 20.03959,11.31469 24.25,20.125 l -7.125,1.625 c -4.55613,-8.86309 -10.97173,-15.12291 -17.125,-21.75 z"
         style="fill:#ffff00;stroke:none" />
      <path
         sodipodi:nodetypes="cccc"
         inkscape:connector-curvature="0"
         id="path3922"
         d="m 363.75,259.61218 c 20.53136,0.73519 29.36121,18.30713 35.42678,26.60225 l -8.64775,0.73614 c -7.8449,-15.11206 -18.96736,-22.4667 -26.77903,-27.33839 z"
         style="fill:#ffff00;stroke:none" />
      <path
         sodipodi:nodetypes="ccc"
         inkscape:connector-curvature="0"
         id="path3924"
         d="m 337.99704,258.63482 c -1.30121,25.74705 18.66919,29.19983 41.54252,29.6101 -5.60283,-11.33731 -9.02276,-23.06309 -41.54252,-29.6101 z"
         style="fill:#ffff00;stroke:none" />
      <path
         sodipodi:nodetypes="ccc"
         inkscape:connector-curvature="0"
         id="path3926"
         d="m 265.625,290.73718 c 10.36124,-0.7062 24.26547,-0.41684 30.25,-6.125 -6.74485,2.08269 -19.9266,-2.35125 -30.25,6.125 z"
         style="fill:#ffff00;stroke:none" />
      <path
         sodipodi:nodetypes="cccc"
         inkscape:connector-curvature="0"
         id="path3928"
         d="m 302.625,290.04968 c 3.26442,-0.44204 7.34002,-1.68639 8.25,-3.1875 l 7.5,2.5 c -3.07487,1.71375 -8.50848,1.64041 -15.75,0.6875 z"
         style="fill:#ffff00;stroke:none" />
      <path
         sodipodi:nodetypes="cccc"
         inkscape:connector-curvature="0"
         id="path3930"
         d="m 325.97623,293.63661 3.41941,-1.18382 c 5.81612,-0.50309 18.74748,6.97578 29.46105,13.38141 -10.55686,-4.73802 -20.8852,-9.8569 -32.88046,-12.19759 z"
         style="fill:#ffff00;stroke:none" />
      <path
         sodipodi:nodetypes="cccc"
         inkscape:connector-curvature="0"
         id="path3932"
         d="m 332.875,305.23718 c 5.69111,4.10242 11.17579,9.09935 15.875,17.5 12.24155,-5.90218 16.28322,-5.09536 21.5,-5.25 -11.93901,-5.39225 -24.51321,-10.03435 -37.375,-12.25 z"
         style="fill:#ffff00;stroke:none" />
      <path
         sodipodi:nodetypes="cccc"
         inkscape:connector-curvature="0"
         id="path3934"
         d="m 296.375,298.48718 c 31.43268,3.3458 36.42349,16.64633 42.75,27.875 -3.01386,1.34736 -6.00815,2.79258 -9.25,3 -5.78363,-11.21447 -16.0638,-21.65811 -33.5,-30.875 z"
         style="fill:#ffff00;stroke:none" />
      <path
         sodipodi:nodetypes="cccc"
         inkscape:connector-curvature="0"
         id="path3936"
         d="m 271.125,300.11218 c 17.30147,0.0833 34.53901,3.97073 51.375,31.75 -1.98358,0.96971 -4.30871,1.52955 -7.125,1.5 -9.24994,-12.09039 -18.65136,-24.15304 -44.25,-33.25 z"
         style="fill:#ffff00;stroke:none" />
      <path
         sodipodi:nodetypes="ccc"
         inkscape:connector-curvature="0"
         id="path3938"
         d="m 256.32621,304.41999 c 34.26971,2.37185 44.10676,22.41311 49.40908,30.67075 -33.77628,2.19488 -46.40838,-10.78239 -49.40908,-30.67075 z"
         style="fill:#ffff00;stroke:none" />
      <path
         sodipodi:nodetypes="ccc"
         inkscape:connector-curvature="0"
         id="path3942"
         d="m 166.25,411.86218 c 1.13524,-7.43723 19.12438,-23.19105 25.875,-25.625 -1.22606,5.42288 -18.14948,17.15195 -25.875,25.625 z"
         style="fill:#ffff00;stroke:none" />
      <path
         sodipodi:nodetypes="cccc"
         inkscape:connector-curvature="0"
         id="path3944"
         d="m 200.125,385.61218 c 0.65862,-1.50949 4.10937,-3.18749 4.75,-8.875 l 11.625,-3.25 c -1.77835,3.28581 -2.64086,5.60789 -16.375,12.125 z"
         style="fill:#ffff00;stroke:none" />
      <path
         sodipodi:nodetypes="cccc"
         inkscape:connector-curvature="0"
         id="path3946"
         d="m 225.25,375.23718 c 1.95817,-2.14587 3.49594,-4.39685 4.125,-6.875 13.36827,-3.66489 24.34614,-2.84177 28.375,-1.5 -11.04348,2.6123 -21.77462,3.53599 -32.5,8.375 z"
         style="fill:#ffff00;stroke:none" />
      <path
         sodipodi:nodetypes="cccc"
         inkscape:connector-curvature="0"
         id="path3948"
         d="m 251.625,374.23718 c 8.2594,-2.27255 19.13362,-4.8841 30.375,-5.5 -4.53833,2.604 -9.08737,5.19516 -12,9.75 -6.40106,-4.22176 -13.64861,-3.93717 -18.375,-4.25 z"
         style="fill:#ffff00;stroke:none" />
      <path
         sodipodi:nodetypes="cccc"
         inkscape:connector-curvature="0"
         id="path3950"
         d="m 225,383.61218 c 7.00893,-3.17811 21.88321,-2.66933 39.5,-0.875 l -5.25,7 c -8.95771,-3.97371 -20.6285,-5.8157 -34.25,-6.125 z"
         style="fill:#ffff00;stroke:none" />
      <path
         sodipodi:nodetypes="cccc"
         inkscape:connector-curvature="0"
         id="path3952"
         d="m 190.875,403.73718 c 20.67819,-20.48055 42.13188,-12.0742 63.125,-9.25 l -5.5,6.75 c -21.97155,-5.5566 -40.98532,-4.27334 -57.625,2.5 z"
         style="fill:#ffff00;stroke:none" />
      <path
         sodipodi:nodetypes="ccc"
         inkscape:connector-curvature="0"
         id="path3954"
         d="m 169,422.11218 c 33.94613,-21.70188 50.04121,-12.73535 71.125,-13 -20.83279,14.94309 -40.93389,32.58586 -71.125,13 z"
         style="fill:#ffff00;stroke:none" />
      <path
         sodipodi:nodetypes="cssssscsssssscc"
         inkscape:connector-curvature="0"
         id="path3960"
         d="m 139.63582,496.36915 c -1.02227,-19.65595 -0.0343,-35.3702 10.40072,-53.75491 4.19146,-7.38459 -2.77907,-2.54488 -3.62756,-1.29965 -5.88383,8.63501 3.26374,-32.97712 10.4903,-45.34725 27.97953,-47.89421 40.66915,-67.96623 67.94443,-86.04735 7.96163,-5.27786 -3.00001,-1.6848 0.0216,-4.69333 11.55393,-11.50395 28.58045,-26.62981 48.78502,-38.46011 -12.71126,6.66374 -25.61686,15.95916 -36.80391,24.88798 -3.94852,3.15146 1.12731,-10.64636 -5.44572,0.21431 -8.2176,13.57802 -41.57842,46.8449 -49.88418,58.17031 -2.4369,3.32285 -1.58851,-5.96697 -4.04005,-0.0632 -5.81657,14.00741 -16.43548,30.72373 -25.46286,48.223 -3.71508,7.20154 -3.79673,-3.29024 -5.13048,2.41648 -2.11002,9.0282 -16.40624,51.94532 -14.67531,97.21491 0.52521,4.82666 8.60847,4.08316 7.428,-1.46119 z"
         style="fill:#ffff00;stroke:none" />
      <path
         style="fill:#e88b08;fill-opacity:1;stroke:none"
         d="m 129.3125,507.11218 c 4.00741,-19.38392 13.03598,-12.22511 15.375,0.4375"
         id="path3832"
         inkscape:connector-curvature="0"
         sodipodi:nodetypes="cc" />
      <path
         sodipodi:nodetypes="cc"
         inkscape:connector-curvature="0"
         id="path3830"
         d="m 129.26831,507.46574 c 4.00741,-19.38392 13.03598,-12.22511 15.375,0.4375"
         style="fill:none;stroke:#000000;stroke-width:1px;stroke-linecap:butt;stroke-linejoin:miter;stroke-opacity:1" />
    </g>
    <path
       style="fill:#e88b08;fill-opacity:1;stroke:none"
       d="m 139.05895,571.6242 -27.75394,26.16295 c 5.26999,14.21216 12.05444,27.91951 20.15254,41.18897 l 39.77476,-7.07106 C 156.98598,618.73285 147.7181,593.54736 139.05895,571.6242 z"
       id="path4429"
       inkscape:connector-curvature="0"
       sodipodi:nodetypes="ccccc"
       inkscape:transform-center-x="225.47868"
       inkscape:transform-center-y="108.09335" />
    <path
       inkscape:transform-center-y="203.03893"
       inkscape:transform-center-x="145.32057"
       sodipodi:nodetypes="ccccc"
       inkscape:connector-curvature="0"
       id="path4431"
       d="m 199.4444,668.64099 -12.47486,36.04385 c 11.25461,10.15343 23.61747,19.15786 36.94163,27.16564 l 31.97282,-24.69352 c -18.72772,-5.07321 -38.60908,-23.09913 -56.43959,-38.51597 z"
       style="fill:#e88b08;fill-opacity:1;stroke:none" />
    <path
       style="fill:#e88b08;fill-opacity:1;stroke:none"
       d="m 298.83555,726.91954 5.79612,37.69862 c 14.6931,3.72444 29.8298,5.91537 45.3513,6.77614 l 16.74556,-36.76435 c -18.92992,4.25712 -44.92731,-2.40153 -67.89298,-7.71041 z"
       id="path4433"
       inkscape:connector-curvature="0"
       sodipodi:nodetypes="ccccc"
       inkscape:transform-center-x="33.965295"
       inkscape:transform-center-y="251.95011" />
    <path
       inkscape:transform-center-y="237.85474"
       inkscape:transform-center-x="-79.834205"
       sodipodi:nodetypes="ccccc"
       inkscape:connector-curvature="0"
       id="path4435"
       d="m 413.59536,732.12214 22.68141,30.66487 c 14.73749,-3.5447 29.1536,-8.65311 43.29095,-15.11786 l -2.29694,-40.33305 c -14.77103,12.58101 -40.87898,18.792 -63.67542,24.78604 z"
       style="fill:#e88b08;fill-opacity:1;stroke:none" />
    <path
       style="fill:#e88b08;fill-opacity:1;stroke:none"
       d="m 517.59926,683.28111 34.35185,16.57502 c 11.39138,-9.99974 21.77019,-21.23364 31.27069,-33.53803 l -20.81465,-34.62342 c -7.21312,18.01211 -27.42526,35.6663 -44.80789,51.58643 z"
       id="path4437"
       inkscape:connector-curvature="0"
       sodipodi:nodetypes="ccccc"
       inkscape:transform-center-x="-183.66319"
       inkscape:transform-center-y="168.56859" />
    <path
       inkscape:transform-center-y="61.13532"
       inkscape:transform-center-x="-245.24232"
       sodipodi:nodetypes="ccccc"
       inkscape:connector-curvature="0"
       id="path4439"
       d="m 586.9053,591.60182 38.11829,-1.33289 c 5.42266,-14.15461 9.37446,-28.92971 12.05043,-44.243 l -34.54565,-20.94348 c 2.00665,19.29867 -7.65629,44.33521 -15.62307,66.51937 z"
       style="fill:#e88b08;fill-opacity:1;stroke:none" />
    <path
       style="fill:#e88b08;fill-opacity:1;stroke:none"
       d="m 605.60264,479.09359 33.18132,-18.80906 c -1.73757,-15.05786 -5.06623,-29.98569 -9.77498,-44.80073 l -40.31501,-2.59447 c 10.70359,16.18328 13.7137,42.85049 16.90867,66.20426 z"
       id="path4441"
       inkscape:connector-curvature="0"
       sodipodi:nodetypes="ccccc"
       inkscape:transform-center-x="-246.99162"
       inkscape:transform-center-y="-51.215355" />
    <path
       inkscape:transform-center-y="-161.27716"
       inkscape:transform-center-x="-189.98731"
       sodipodi:nodetypes="ccccsc"
       inkscape:connector-curvature="0"
       id="path4443"
       d="m 569.41694,369.51588 20.53659,-32.14078 c -8.57643,-12.49813 -18.49851,-24.13739 -29.5878,-35.03167 0,0 -21.41825,9.7933 -32.25627,14.75245 -0.61205,0.77328 -1.28599,1.72878 -1.02102,2.0363 11.60631,13.46965 28.89171,31.66116 42.3285,50.3837 z"
       style="fill:#e88b08;fill-opacity:1;stroke:none" />
    <g
       id="g4445"
       transform="translate(41.16792,13.448183)"
       style="stroke:none">
      <path
         inkscape:connector-curvature="0"
         id="path4447"
         d="m 486.6875,303.96875 c 49.00778,44.10412 79.84375,108.01851 79.84375,179.15625 0,133.06594 -107.82315,240.9375 -240.84375,240.9375 -123.87096,0 -225.89138,-93.55359 -239.34375,-213.875 l 57.5,-6.34375 c 10.28923,91.33439 87.79062,162.3125 181.84375,162.3125 101.0561,0 182.96875,-81.9407 182.96875,-183.03125 0,-54.03168 -23.40812,-102.59103 -60.625,-136.09375 l 38.625,-42.96875 c 0,0 0.0293,-0.0891 0.0312,-0.0937 z"
         style="fill:#e88b08;fill-opacity:1;stroke:none" />
      <path
         inkscape:connector-curvature="0"
         id="path4449"
         d="m 486.6875,303.96875 c 49.00778,44.10412 79.84375,108.01851 79.84375,179.15625 0,133.06594 -107.82315,240.9375 -240.84375,240.9375 -123.87096,0 -225.89138,-93.55359 -239.34375,-213.875 l 47.75,-5.28125 c 10.84087,96.46289 92.64269,171.4375 191.96875,171.4375 106.70476,0 193.21875,-86.54011 193.21875,-193.28125 0,-57.13747 -24.81611,-108.46044 -64.21875,-143.84375 l 31.59375,-35.15625 c 0,0 0.0293,-0.0891 0.0312,-0.0937 z"
         style="fill:#ffff00;stroke:none" />
      <path
         sodipodi:nodetypes="cssccssccc"
         style="fill:none;stroke:none"
         d="m 486.6875,303.96875 c 49.00778,44.10412 79.84375,108.01851 79.84375,179.15625 0,133.06594 -107.82315,240.9375 -240.84375,240.9375 -123.87096,0 -225.89138,-93.55359 -239.34375,-213.875 l 57.5,-6.34375 c 10.28923,91.33439 87.79062,162.3125 181.84375,162.3125 101.0561,0 182.96875,-81.9407 182.96875,-183.03125 0,-54.03168 -23.40812,-102.59103 -60.625,-136.09375 12.68089,-14.5225 26.11513,-28.44613 38.6562,-43.06245 z"
         id="path4451"
         inkscape:connector-curvature="0" />
    </g>
    <path
       sodipodi:nodetypes="csc"
       inkscape:connector-curvature="0"
       id="path4453"
       d="m 116.76101,595.51225 c 3.10123,-2.83846 19.85914,-18.85822 22.09709,-16.52862 1.41093,1.46872 -17.97119,15.07117 -22.09709,16.52862 z"
       style="fill:#ffff00;stroke:none" />
    <path
       sodipodi:nodetypes="ccc"
       inkscape:connector-curvature="0"
       id="path4455"
       d="m 193.77145,702.24517 c 4.30606,-9.03159 18.2295,-23.29936 8.125,-24.25 -3.29146,1.64574 -10.82251,22.73475 -8.125,24.25 z"
       style="fill:#ffff00;stroke:none" />
    <path
       sodipodi:nodetypes="csssc"
       inkscape:connector-curvature="0"
       id="path4457"
       d="m 307.2379,760.35652 c 1.65218,0.006 4.38122,0.38475 4.4975,-0.64549 0.12039,-1.06653 -0.67046,-20.58582 -2.27366,-25.22894 -0.58761,-1.70177 -3.00468,-1.97654 -3.63805,-0.11174 -0.52201,1.5369 0.13345,23.78216 1.41421,25.98617 z"
       style="fill:#ffff00;stroke:none" />
    <path
       sodipodi:nodetypes="cc"
       inkscape:connector-curvature="0"
       id="path4459"
       d="m 472.95829,728.26689 c 7.14277,9.78054 -0.0926,30.53489 0,0 z"
       style="fill:#ffff00;stroke:none" />
    <path
       sodipodi:nodetypes="zsszz"
       inkscape:connector-curvature="0"
       id="path4461"
       d="m 576.52903,667.07598 c 0.35599,0.16751 1.69552,-1.0965 1.55492,-1.51831 -1.42058,-4.26174 -11.59127,-17.02877 -14.9375,-20.375 -1.60487,-1.60487 -5.15991,2.12374 -3.61742,3.76831 1.54249,1.64456 16.64401,17.95748 17,18.125 z"
       style="fill:#ffff00;stroke:none" />
    <path
       sodipodi:nodetypes="zcz"
       inkscape:connector-curvature="0"
       id="path4463"
       d="m 605.77145,538.49517 c 2.63757,-4.23011 16.51284,5.58551 24.875,8.625 -8.297,-2.87336 -27.51257,-4.39489 -24.875,-8.625 z"
       style="fill:#ffff00;stroke:none" />
    <path
       sodipodi:nodetypes="ccc"
       inkscape:connector-curvature="0"
       id="path4465"
       d="m 625.39645,423.99517 c -37.51313,4.67547 -32.32134,-8.69459 -0.5,-4.125 z"
       style="fill:#ffff00;stroke:none" />
    <path
       sodipodi:nodetypes="cc"
       inkscape:connector-curvature="0"
       id="path4467"
       d="m 555.43238,309.57595 c -25.41383,7.28081 -25.6583,20.95539 0,0 z"
       style="fill:#ffff00;stroke:none" />
    <path
       style="fill:none;stroke:#000000;stroke-width:1px;stroke-linecap:butt;stroke-linejoin:miter;stroke-opacity:1"
       d="m 560.29198,302.51335 c 0,0 -21.41198,9.79085 -32.25,14.75 -0.15301,0.19332 -0.32364,0.39062 -0.46875,0.59375 -12.47491,14.51818 -25.83447,28.34791 -38.4375,42.78125 37.21688,33.50272 60.625,82.06207 60.625,136.09375 0,101.09055 -81.91265,183.03125 -182.96875,183.03125 -94.05313,0 -171.55452,-70.97811 -181.84375,-162.3125 l -57.5,6.34375 c 1.88419,16.85271 5.48033,33.19356 10.65625,48.8125 l -26.875,25.34375 c 5.26999,14.21216 12.05815,27.91804 20.15625,41.1875 l 36.53125,-6.46875 c 9.14273,13.35903 19.57889,25.76207 31.15625,37 l -12.1875,35.1875 c 11.25461,10.15343 23.61334,19.14847 36.9375,27.15625 l 29.46875,-22.71875 c 14.38736,7.7048 29.64655,13.97686 45.59375,18.65625 l 5.6875,36.84375 c 14.6931,3.72444 29.82225,5.88923 45.34375,6.75 l 15.4375,-33.875 c 0.47796,0.003 0.95889,0 1.4375,0 16.17675,0 31.96716,-1.61428 47.25,-4.65625 l 22.15625,29.9375 c 14.73749,-3.5447 29.1439,-8.66025 43.28125,-15.125 l -2.09375,-37 c 14.62572,-7.5783 28.37968,-16.63911 41.0625,-26.9375 l 33.4375,16.125 c 11.39138,-9.99974 21.7495,-21.22686 31.25,-33.53125 l -19,-31.625 c 9.41902,-13.44288 17.48054,-27.89373 24.03125,-43.15625 l 36.78125,-1.28125 c 5.42266,-14.15461 9.38653,-28.90546 12.0625,-44.21875 L 605.72948,527.2321 c 1.2612,-9.98866 1.90625,-20.16891 1.90625,-30.5 0,-6.1401 -0.26744,-12.22562 -0.71875,-18.25 l 31.78125,-18.03125 c -1.73757,-15.05786 -5.04125,-29.99746 -9.75,-44.8125 l -36.1875,-2.3125 c -5.8909,-15.95798 -13.40695,-31.11806 -22.375,-45.28125 l 19.5,-30.5 c -8.57643,-12.49813 -18.50446,-24.13697 -29.59375,-35.03125 z"
       id="path4233"
       inkscape:connector-curvature="0" />
  </g>
</svg>
