<?xml version="1.0" encoding="UTF-8" standalone="no"?>
<!-- Created with Inkscape (http://www.inkscape.org/) -->

<svg
   xmlns:dc="http://purl.org/dc/elements/1.1/"
   xmlns:cc="http://creativecommons.org/ns#"
   xmlns:rdf="http://www.w3.org/1999/02/22-rdf-syntax-ns#"
   xmlns:svg="http://www.w3.org/2000/svg"
   xmlns="http://www.w3.org/2000/svg"
   xmlns:sodipodi="http://sodipodi.sourceforge.net/DTD/sodipodi-0.dtd"
   xmlns:inkscape="http://www.inkscape.org/namespaces/inkscape"
   width="704.37744"
   height="880.38"
   id="svg2"
   version="1.1"
   inkscape:version="0.48.2 r9819"
   sodipodi:docname="Новый документ 1">
  <defs
     id="defs4" />
  <sodipodi:namedview
     id="base"
     pagecolor="#ffffff"
     bordercolor="#666666"
     borderopacity="1.0"
     inkscape:pageopacity="0.0"
     inkscape:pageshadow="2"
     inkscape:zoom="0.5"
     inkscape:cx="746.78315"
     inkscape:cy="391.31528"
     inkscape:document-units="px"
     inkscape:current-layer="layer1"
     showgrid="false"
     showguides="true"
     inkscape:guide-bbox="true"
     fit-margin-top="0"
     fit-margin-left="0"
     fit-margin-right="0"
     fit-margin-bottom="0"
     inkscape:showpageshadow="false"
     showborder="false"
     inkscape:window-width="1366"
     inkscape:window-height="706"
     inkscape:window-x="-8"
     inkscape:window-y="-8"
     inkscape:window-maximized="1" />
  <metadata
     id="metadata7">
    <rdf:RDF>
      <cc:Work
         rdf:about="">
        <dc:format>image/svg+xml</dc:format>
        <dc:type
           rdf:resource="http://purl.org/dc/dcmitype/StillImage" />
        <dc:title></dc:title>
      </cc:Work>
    </rdf:RDF>
  </metadata>
  <g
     inkscape:label="Layer 1"
     inkscape:groupmode="layer"
     id="layer1"
     transform="translate(0.35399217,-0.93484815)">
    <g
       id="g3915"
       transform="matrix(1.0019594,0,0,1.0019594,-22.187459,-10.346062)">
      <path
         inkscape:connector-curvature="0"
         id="rect2996"
         d="m 373.29077,10.260983 -351.21875,0.0625 -0.28125,735.124997 c 0,35.06797 40.52589,70.25 68.28125,70.25 l 213.9375,0 c 64.94874,7.98084 69.02754,66.2174 69.28125,73.46875 l 0,0.75 c 0,0 0.003,-65.70585 69.28125,-74.21875 l 213.96875,0 c 27.75537,0 68.25,-35.18203 68.25,-70.25 l -0.25,-735.124997 -351.25,-0.0625 z"
         style="fill:#000000;fill-opacity:1;stroke:none" />
      <path
         sodipodi:nodetypes="ccccccccc"
         inkscape:connector-curvature="0"
         id="path3800"
         d="M 396.51013,128.70395 373.29077,116.40041 350.3098,128.94233 364.55789,107.0488 350.07142,82.742007 373.29077,97.873974 396.27174,82.503621 383.17271,107.0488 z"
         style="fill:#eeee20;fill-opacity:1;stroke:none" />
      <path
         style="fill:#eeee20;fill-opacity:1;stroke:none"
         d="m 608.28861,226.63824 -23.21936,-12.30354 -22.98097,12.54192 14.24809,-21.89353 -14.48647,-24.30679 23.21935,15.13196 22.98097,-15.37035 -13.09903,24.54518 z"
         id="path3805"
         inkscape:connector-curvature="0"
         sodipodi:nodetypes="ccccccccc" />
      <path
         sodipodi:nodetypes="ccccccccc"
         inkscape:connector-curvature="0"
         id="path3807"
         d="m 704.80869,435.94185 -23.21936,-12.30354 -22.98097,12.54192 14.24809,-21.89353 -14.48647,-24.30679 23.21935,15.13196 22.98097,-15.37035 -13.09903,24.54518 z"
         style="fill:#eeee20;fill-opacity:1;stroke:none" />
      <path
         style="fill:#eeee20;fill-opacity:1;stroke:none"
         d="m 607.40473,644.98029 -23.21936,-12.30354 -22.98097,12.54192 14.24809,-21.89353 -14.48647,-24.30679 23.21935,15.13196 22.98097,-15.37035 -13.09903,24.54518 z"
         id="path3809"
         inkscape:connector-curvature="0"
         sodipodi:nodetypes="ccccccccc" />
      <path
         sodipodi:nodetypes="ccccccccc"
         inkscape:connector-curvature="0"
         id="path3811"
         d="m 396.51013,741.06103 -23.21936,-12.30354 -22.98097,12.54192 14.24809,-21.89353 -14.48647,-24.30679 23.21935,15.13196 22.98097,-15.37035 -13.09903,24.54518 z"
         style="fill:#eeee20;fill-opacity:1;stroke:none" />
      <path
         style="fill:#eeee20;fill-opacity:1;stroke:none"
         d="m 186.51013,645.06103 -23.21936,-12.30354 -22.98097,12.54192 14.24809,-21.89353 -14.48647,-24.30679 23.21935,15.13196 22.98097,-15.37035 -13.09903,24.54518 z"
         id="path3813"
         inkscape:connector-curvature="0"
         sodipodi:nodetypes="ccccccccc" />
      <path
         sodipodi:nodetypes="ccccccccc"
         inkscape:connector-curvature="0"
         id="path3815"
         d="M 90.76013,435.31103 67.54077,423.00749 44.5598,435.54941 58.80789,413.65588 44.32142,389.34909 67.54077,404.48105 90.52174,389.1107 77.42271,413.65588 z"
         style="fill:#eeee20;fill-opacity:1;stroke:none" />
      <path
         sodipodi:nodetypes="cccccczcccc"
         inkscape:connector-curvature="0"
         id="path3830"
         d="m 429.91537,303.46143 c 0,0 16.3607,0.79263 26.25,-0.25 18.1393,-6.16763 41.1607,-49.67127 62.75,-48.74999 20.5893,0.17128 139.1647,-0.10389 139.1647,-0.10389 l -53.5633,53.56334 -81.1405,0 c 0,0 -58.3166,56.1869 -63.9931,59.75052 -5.6766,3.56362 -10.9602,4.06586 -10.9602,4.06586 l -84.4993,-0.53033 16.6171,-79.72629 z"
         style="fill:#eeee20;fill-opacity:1;stroke:none" />
      <path
         sodipodi:nodetypes="ccczzcccccccccccccccccccccczczccccccccccccccccccccccccccczzzcccccccccccccczzcccccccccccccccccccccccccccccccccccccccccc"
         inkscape:connector-curvature="0"
         id="path3817"
         d="m 126.08757,379.55009 c 0,0 2.2836,-11.69889 6.8943,-18.64994 4.6991,-7.74655 23.1578,-25.54423 23.1578,-25.54423 0,0 55.6386,-28.11787 58.3363,-29.34494 2.6977,-1.22707 7.2866,-2.09334 10.0763,-0.17677 2.7896,1.91657 46.8458,48.26003 46.8458,48.26003 0,0 15.4745,-19.7137 28.7816,-24.09817 7.7387,-9.68777 21.8908,-24.95854 31.75,-30.99999 0.225,-13.90801 3.25,-35 3.25,-35 0,0 -27.4954,-1.01301 -35.875,-2.50001 -16.2461,-4.66898 -44.2772,-47.35462 -53.875,-56.74999 -5.0899,-4.18045 -7.1422,-8.78054 -7.5491,-10.9179 1.184,-5.23095 5.2991,-5.95711 5.2991,-5.95711 0,0 1.9029,-4.09414 6,-4 2.3736,-4.63463 5.9859,-4.56379 9.375,-4.5 4.1405,-4.17885 8.75,-0.875 8.75,-0.875 l 7.125,3.75 c 0,0 1.366,8.6684 -2.375,13.875 3.2417,11.87992 29.4999,25.85169 38.375,42 12.0572,0.0616 24.748,-0.29643 36.5,0.75 9.2521,-1.26607 32.3022,14.37207 32.3022,14.37207 l 2.3865,0.35355 0.6187,-11.04854 c 0,0 -10.5836,-1.57023 -11.0574,-5.42708 -0.5987,-2.73185 2.1111,-7.87872 2.1111,-7.87872 l 4.0139,-2.87128 0.625,-5.6875 c 0,0 -3.7092,-1.73006 -3.7092,-3.81907 0,-2.08901 17.5842,-20.99343 17.5842,-20.99343 0,0 11.5722,-0.27962 19.375,0 7.8029,0.27962 15.7995,7.3245 17.75,11.5 0.6247,1.96579 0.25,13.875 0.25,13.875 l 10.5,0 0,5.375 -10,9.5 -4,0.625 -0.375,5.125 -4,4.375 -4.875,0.25 c 0,0 0.1575,5.66368 0.25,10 11.2875,-0.44868 31.2707,-1.05075 42.8088,8.6795 13.3506,-0.0822 37.6534,0.7071 37.6534,0.7071 0,0 12.9062,0.81572 19.3597,1.21663 15.7253,0.97689 47.1781,2.89678 47.1781,2.89678 l 7,-7 15.625,0.62499 7,7.25 -0.375,4.75 c 0,0 -2.7318,0.55162 -3.875,1 -0.6431,2.32338 -2.3739,4.29249 -4.375,5.125 -0.126,1.83251 -2.2546,3.61571 -3.875,4.375 -1.2453,3.00929 -5.125,4.625 -5.125,4.625 l -14.0143,0.41567 -5.8336,-5.12653 -79.3727,1.94455 -4.5962,2.65165 -29.6985,-0.53033 c 0,0 -35.6899,44.93087 -59.9847,57.39499 -24.2947,12.46412 -19.7188,44.50271 -18,53 1.7189,8.49729 4.6165,28.61807 40.25,43.25 35.6335,14.63193 61.7446,43.85996 60.75,69.25 23.4007,12.30857 46,45.5 46,45.5 l 0.5,34.75 29.75,-0.25 0.25,2.75 -18.5,16 19.25,0 -37.5,39.5 -17.5,-21.25 0,-10 -16.5,-16 4.5,-58.5 -12.75,-16 c 0,0 -26.1538,33.59353 -49.75,45.75 11.4056,10.56548 36.1889,44.48192 39.25,50.75 3.0611,6.26808 0.8379,11.97551 -5.5,12 -6.3378,0.0245 -58.25,-0.5 -58.25,-0.5 l 10.25,4.75 -17.5,13.25 -18.5,-0.5 0.5,17 -35.5666,0.29623 16.0867,-25.1023 19.2686,-18.9151 2.2981,-2.2981 -5.4801,0 -14.3189,11.49049 c 0,0 -5.0028,0.05 -9.5459,-0.70711 -11.0839,-5.70684 -11.5698,4.69293 -8.3085,7.95495 0.7864,3.61558 0.7071,10.6066 0.7071,10.6066 l -37.4767,0.17678 14.6725,-24.21841 35.8857,-24.21841 51.9723,-1.59099 -47.0226,-47.7297 c 0,0 -0.2852,-11.18976 -0.5303,-28.1075 -23.5797,-19.03906 -99.2653,-54.17557 -99.1717,-106.41957 -3.0885,0.43546 -9.546,-0.17677 -9.546,-0.17677 l -32.5269,-40.12831 0.8839,30.58236 11.844,27.04684 -6.5407,2.2981 1.0606,3.18198 8.8389,-1.41422 11.4905,27.57717 -27.5772,-3.53554 -19.4454,-32.52691 0.7071,-88.38835 11.1369,-7.24784 38.7141,28.99138 -24.0416,-37.65344 -29.8753,9.01561 -10.8426,17.78508 -12.625,0 -3.375,4.125 5.375,1.875 0.078,15.63613 z"
         style="fill:#eeee20;fill-opacity:1;stroke:none" />
      <path
         sodipodi:nodetypes="cczcccccccc"
         inkscape:connector-curvature="0"
         id="path3832"
         d="m 241.26239,196.52249 c -3.1209,-0.66592 -4.0776,5.32794 -10.3433,6.41574 -55.5157,-0.0372 -52.9877,35.54759 -53.4731,39.72298 -0.4853,4.17539 0.7457,30.05452 0.5303,38.53732 -2.6902,20.50361 -18.1783,26.72494 -18.1783,26.72494 l 0,5.125 c 0,0 -0.6399,3.59487 5.75,0.375 6.3899,-3.21987 19.3422,-18.66291 20.125,-31.25 0.7828,-12.58709 0.014,-25.2232 1.4571,-38.82322 9.9284,-37.11132 44.1587,-23.05501 58.0429,-41.05178 -2.3792,-3.67785 -0.7897,-5.11006 -3.9106,-5.77598 z"
         style="fill:#eeee20;fill-opacity:1;stroke:none" />
      <path
         inkscape:transform-center-y="-21.387482"
         inkscape:transform-center-x="-65.021537"
         style="fill:#eeee20;fill-opacity:1;stroke:none"
         d="m 268.00907,181.44825 c 0.4751,-3.15557 6.4221,-1.94155 9.6455,-7.42354 19.5036,-51.97696 51.922,-37.0869 56.0011,-36.0717 4.079,1.01521 27.8692,11.27544 35.8851,14.05936 20.1386,4.69803 31.4128,-7.60964 31.4128,-7.60964 l 4.7971,1.80371 c 0,0 3.5901,0.66622 -1.6726,5.51409 -5.2628,4.84787 -24.2763,11.53642 -36.3335,7.83919 -12.0573,-3.69723 -23.6144,-8.86413 -36.8522,-12.2997 -38.2313,-3.76786 -37.1214,33.21939 -58.8532,39.88146 -2.6052,-3.5214 -4.5052,-2.53765 -4.0301,-5.69323 z"
         id="path3834"
         inkscape:connector-curvature="0"
         sodipodi:nodetypes="cczcccccccc" />
      <path
         sodipodi:nodetypes="cccccccccccccccc"
         inkscape:connector-curvature="0"
         id="path3836"
         d="m 473.87451,373.78232 -4.2427,4.24264 -2.8284,-3.53553 3.5355,-2.82843 -3.5355,-3.18198 29.3449,-26.16295 4.5962,-0.35356 107.4803,-103.23759 -4.1762,-2.28799 30.25,-21 -18.9375,29.8125 -3.25,-3.3125 -107.4775,103.73789 -0.088,5.56847 -28.5494,27.04683 z"
         style="fill:#eeee20;fill-opacity:1;stroke:none" />
      <path
         sodipodi:nodetypes="cccccc"
         inkscape:connector-curvature="0"
         id="path3838"
         d="m 270.5,224.86219 c 0,0 19.04331,24.3424 33.5,29.25 14.58169,1.9076 33.5,3.25 33.5,3.25 l -0.5,4.25 c 0,0 -32.93595,-0.9664 -39.25,-2.75 -12.18905,-6.5336 -27.25,-34 -27.25,-34 z"
         style="fill:#f59d2a;fill-opacity:1;stroke:none" />
      <path
         sodipodi:nodetypes="cczc"
         inkscape:connector-curvature="0"
         id="path3840"
         d="m 373.29077,272.36218 c -33.8714,20.1974 -3.04077,26.75 -3.04077,26.75 0,0 -6.26633,-6.06306 -6.5,-9.625 -0.23367,-3.56194 2.16217,-6.3224 9.54077,-17.125 z"
         style="fill:#f59d2a;fill-opacity:1;stroke:none" />
      <path
         inkscape:connector-curvature="0"
         id="path3842"
         d="m 343.875,300.11218 c -4.25,9.25 -0.375,11.125 -0.375,11.125 0,0 1.75,0.5 1.875,1.875 0.125,1.375 0.25,5 1.25,4.625 1,-0.375 1.25,-8 1.25,-8 0,0 -2,-0.5 -2.5,-1.625 -0.5,-1.125 -1.5,-8 -1.5,-8 z"
         style="fill:#f59d2a;fill-opacity:1;stroke:none" />
      <path
         inkscape:connector-curvature="0"
         id="path3844"
         d="m 373.29077,313.98718 c 9.70923,-4.5 9.33423,-4.375 13.83423,-3.875 4.5,0.5 14.375,0.625 14.375,0.625 0,0 -6.625,4 -10.875,4.625 -4.25,0.625 -17.33423,-1.375 -17.33423,-1.375 z"
         style="fill:#f59d2a;fill-opacity:1;stroke:none" />
      <path
         inkscape:connector-curvature="0"
         id="path3846"
         d="m 373.29077,323.11218 c 0,0 1.95923,-3.625 6.58423,-3.875 4.625,-0.25 10,0.625 13.5,-0.25 3.5,-0.875 3,-1.25 3,-1.25 0,0 -6.375,5.625 -9.625,6.125 -3.25,0.5 -13.45923,-0.75 -13.45923,-0.75 z"
         style="fill:#f59d2a;fill-opacity:1;stroke:none" />
      <path
         sodipodi:nodetypes="zssccz"
         inkscape:connector-curvature="0"
         id="path3848"
         d="m 373.29077,334.47202 c -1.32842,-0.0392 -3.95069,-3.31456 0,-4.86136 4.61154,-1.80554 4.75974,1.15942 11.19854,0.26517 1.59099,-0.22097 2.919,-0.9209 3.88909,-1.41421 -2.28485,3.78696 -6.45235,5.39169 -6.45235,5.39169 -1.33921,0.38613 -7.30686,0.65786 -8.63528,0.61871 z"
         style="fill:#f59d2a;fill-opacity:1;stroke:none" />
      <path
         sodipodi:nodetypes="cccccccccccccccccccccccc"
         inkscape:connector-curvature="0"
         id="path3850"
         d="m 159.65969,379.08777 -0.17678,-13.6118 -4.24264,-1.23744 2.82843,-7.24785 12.37436,0.53033 0.53033,-2.82842 -8.48528,-0.17678 -0.17677,-1.59099 9.89949,0.53033 0.17678,-2.82843 -7.42462,-0.17677 0,-1.23744 11.84403,-0.17678 0,-2.47487 -7.24784,-0.35355 1.59099,-2.47488 8.13173,-0.35355 c 0,0 14.49569,-11.49049 31.28947,-12.02082 0.70711,-2.65165 0,-8.66205 0,-8.66205 l -41.01219,18.73833 c 0,0 -14.67247,7.60139 -21.92031,23.33452 4.41942,2.47488 8.83883,2.65165 8.83883,2.65165 l -5.48007,11.66726 z"
         style="fill:#f59d2a;fill-opacity:1;stroke:none" />
      <path
         inkscape:connector-curvature="0"
         id="path3852"
         d="m 196.5,369.61218 8,13.5 0.25,32.25 11.25,25.25 -7,3.5 0.5,6.5 c 0,0 -9.5,-1.5 -12.75,-35 -3.25,-33.5 -0.25,-46 -0.25,-46 z"
         style="fill:#f59d2a;fill-opacity:1;stroke:none" />
      <path
         sodipodi:nodetypes="csczcc"
         inkscape:connector-curvature="0"
         id="path3854"
         d="m 235.79289,367.58445 c 0,0 10.75,10.125 18,1.5 7.25,-8.625 18,-15.25 18,-15.25 0,0 -14.14544,22.20341 -16.125,23.125 -1.97956,0.92159 -11,2.5 -21.125,-8.875 0,-1 1.25,-0.5 1.25,-0.5 z"
         style="fill:#f59d2a;fill-opacity:1;stroke:none" />
      <path
         sodipodi:nodetypes="ccccc"
         inkscape:connector-curvature="0"
         id="path3856"
         d="m 246.7474,423.16288 c 0,0 9.25,-4.25 21.5,5.25 -0.125,2.125 -2.75,0.5 -2.75,0.5 0,0 -6.125,-5 -18.5,-4 -0.75,0 -0.25,-1.75 -0.25,-1.75 z"
         style="fill:#f59d2a;fill-opacity:1;stroke:none" />
      <path
         sodipodi:nodetypes="cscccccscc"
         inkscape:connector-curvature="0"
         id="path3858"
         d="m 349.13397,328.01707 c 0,0 5.3033,12.55115 8.83884,14.49569 3.53553,1.94455 10.6066,0.70711 10.6066,0.70711 l 4.71136,-3.71231 16.32507,0 c 0,0 -40.98408,17.11701 -37.3903,49.40778 2.51804,11.76243 9.90152,24.92682 9.90152,24.92682 0,0 -9.59336,-17.37417 -11.40209,-24.04163 -4.50781,-16.61701 -0.35356,-36.85794 -0.35356,-36.85794 0,0 -8.66206,-12.02082 -1.23744,-24.92552 z"
         style="fill:#f59d2a;fill-opacity:1;stroke:none" />
      <path
         sodipodi:nodetypes="cccccccsccsccccccccccccccccscc"
         inkscape:connector-curvature="0"
         id="path3860"
         d="m 313.75,648.73718 5.625,-6.375 -0.125,-12.625 25.375,-14.5 22.875,0.375 0,-1.875 57.125,-0.625 c 0,0 6.5,-0.875 3.25,-6.25 -3.25,-5.375 -13.125,-21.75 -13.125,-21.75 l 22.125,28.375 c 0,0 6.5,8.5 -3.625,8.625 -10.125,0.125 -56.5,-0.5 -56.5,-0.5 l -6.875,-2 -16.5,-0.125 -3,-1.125 -0.75,1 5.375,3 -0.125,1.625 -4.625,0 -4.25,-2.875 -2.375,0 0,1.5 4.875,3.125 -0.0625,2.625 -3.625,0 -5.4375,-3.75 -13.04522,7.02147 c 0,0 -2.82843,3.35876 -0.26517,8.39689 2.56327,5.03814 0.88389,9.19239 0.88389,9.19239 z"
         style="fill:#f59d2a;fill-opacity:1;stroke:none" />
      <path
         sodipodi:nodetypes="zscscccz"
         inkscape:connector-curvature="0"
         id="path3862"
         d="m 409.25,573.73718 c -2.5998,-3.85283 -12.25,-11 0.875,-16.25 15.05199,-6.0208 27.42788,-14.17804 39.75,-23 -23.17788,20.80304 -39.31511,24.63578 -42.25,27 -4.5,3.625 3.125,10.625 3.125,10.625 l 19.125,27.125 0,5.5 c 0,0 -18.0252,-27.14717 -20.625,-31 z"
         style="fill:#f59d2a;fill-opacity:1;stroke:none" />
      <path
         sodipodi:nodetypes="csczc"
         inkscape:connector-curvature="0"
         id="path3864"
         d="m 479.125,537.23718 c 0,0 9.16352,3.87527 9.25,17.625 0.125,19.875 -3.75,27.625 12.875,35.75 -5.375,-0.75 -15.53802,-1.68679 -19.25,-9.375 -3.71198,-7.68821 5.625,-33.75 -2.875,-44 z"
         style="fill:#f59d2a;fill-opacity:1;stroke:none" />
      <path
         sodipodi:nodetypes="czcccccccccsscc"
         inkscape:connector-curvature="0"
         id="path3866"
         d="m 377,299.36218 c 0,0 17.71249,0.10215 23.625,0 5.91251,-0.10215 30.5,-32.25 43.25,-32.5 0.25,4.25 -4.5,5.375 -4.5,5.375 l 60.81466,0.89333 -10.25305,7.42462 59.48536,0.88389 5.83363,5.83363 -84.49926,0 4.77297,-4.5962 -39.90431,-1.18926 c 0,0 -3.875,0.49999 -6.5,2.62499 -2.625,2.125 -16.86568,20.94963 -23.25,21.5 -7.25,0.625 -32.58423,-0.5 -32.58423,-0.5 z"
         style="fill:#f59d2a;fill-opacity:1;stroke:none" />
      <path
         sodipodi:nodetypes="csccccscccscccscccsc"
         inkscape:connector-curvature="0"
         id="path3870"
         d="m 373.29077,252.98718 c 0,0 7.19238,0.95295 8.33423,8.375 0.25,1.625 2.875,-0.25 2.875,-0.25 l 11.5,-14.25 -3.25,-4.5 4.875,-9.75 c 0,0 0.4074,-18.88127 -8.75,-27.5 -4.25,-4 2.375,-0.5 2.375,-0.5 l 3.125,-0.375 0.625,-2.25 c 0,0 -3.25,-3.75 -2.125,-3.75 1.125,0 2.24761,0.18512 6.125,4.125 2.75239,10.43988 -2.95971,34.07209 12.875,40.75 6.375,2.875 -4.625,1.125 -4.625,1.125 0,0 -9.25,11.25 -3.125,14.25 8.16478,3.99908 8.25,0.375 8.25,0.375 l 0.5,2.875 -25,0.375 c 0,0 -9.53717,2.04024 -10.75,0.25 -2.90387,-4.28636 -3.83423,-9.375 -3.83423,-9.375 z"
         style="fill:#f59d2a;fill-opacity:1;stroke:none" />
      <path
         inkscape:connector-curvature="0"
         id="path3872"
         d="m 402.25,202.73718 c 0,0 -0.125,14.25 3.125,16.75 3.25,2.5 1.875,-4.625 1.875,-4.625 z"
         style="fill:#f59d2a;fill-opacity:1;stroke:none" />
      <path
         sodipodi:nodetypes="cscczc"
         inkscape:connector-curvature="0"
         id="path3874"
         d="m 406.5,205.11218 c 0,0 1.5,15.75 9.625,16.625 8.125,0.875 8.875,0.375 8.875,0.375 l -1.5,-3.5 c 0,0 -4.18932,1.16585 -7.75,-0.75 -3.56068,-1.91585 -9.25,-12.75 -9.25,-12.75 z"
         style="fill:#f59d2a;fill-opacity:1;stroke:none" />
      <path
         inkscape:connector-curvature="0"
         id="path3876"
         d="m 384.625,210.23718 c 0,0 2.875,-0.625 3.25,-3.125 0.375,-2.5 5.625,9.25 5.625,9.25 z"
         style="fill:#f59d2a;fill-opacity:1;stroke:none" />
      <path
         inkscape:connector-curvature="0"
         id="path3878"
         d="m 376.625,234.86218 c 1.75,-4 8.625,-9 8.625,-9 0,0 0.75,3.25 0.25,4 -0.5,0.75 -8.875,5 -8.875,5 z"
         style="fill:#f59d2a;fill-opacity:1;stroke:none" />
      <path
         inkscape:connector-curvature="0"
         id="path3880"
         d="m 376.375,237.48718 c 0,0 2.125,0.5 4.75,-2.875 2.625,-3.375 9.75,-2.875 9.75,-2.875 0,0 2.5,-0.375 2.625,-3.875 0.125,-3.5 -3.25,-6.375 -1.875,-7.875 1.375,-1.5 3,-4.25 2.875,-3.25 -0.125,1 2.625,13.25 1.375,15.5 -1.25,2.25 -4.5,6.75 -4.75,8.75 -0.25,2 0.625,3.75 0.625,3.75 0,0 -8.625,-4 -10.375,-4.125 -1.75,-0.125 5.75,-3.375 5.75,-3.375 0,0 5.75,-2.5 6.25,-4.125 0.5,-1.625 -4,2.125 -5.75,2 -1.75,-0.125 -5.125,2.25 -6.25,2.75 -1.125,0.5 -5,-0.375 -5,-0.375 z"
         style="fill:#f59d2a;fill-opacity:1;stroke:none" />
      <path
         inkscape:connector-curvature="0"
         id="path3882"
         d="m 405.75,227.73718 c 0,0 8.5,6.25 18.125,6.25 9.625,0 -2.375,1.375 -2.375,1.375 0,0 -13.875,-1.5 -15.375,-4.75 -1.5,-3.25 -0.375,-2.875 -0.375,-2.875 z"
         style="fill:#f59d2a;fill-opacity:1;stroke:none" />
      <path
         inkscape:connector-curvature="0"
         id="path3884"
         d="m 380,216.79968 c 4.1875,3.5 1.62388,4.93332 1.375,5 -0.24888,0.0667 -3.625,0.0625 -3.25,-1.3125 0.375,-1.375 0.1875,-3.9375 0.1875,-3.9375 l 2,0.5 z"
         style="fill:#f59d2a;fill-opacity:1;stroke:none" />
      <path
         sodipodi:nodetypes="ccccc"
         inkscape:connector-curvature="0"
         id="rect3886"
         d="m 457.77926,350.1595 21.1106,-0.0884 -2.2981,2.27589 -18.8125,0 z"
         style="fill:#f59d2a;fill-opacity:1;fill-rule:evenodd;stroke:none" />
      <path
         sodipodi:nodetypes="ccccc"
         inkscape:connector-curvature="0"
         id="rect3888"
         d="m 473.47119,337.34073 19.04052,0 -1.98874,2.07322 -17.05178,0 z"
         style="fill:#f59d2a;fill-opacity:1;fill-rule:evenodd;stroke:none" />
      <path
         sodipodi:nodetypes="ccccc"
         inkscape:connector-curvature="0"
         id="rect3890"
         d="m 490.3512,321.37735 18.95841,0.0884 -1.45841,1.28661 -17.5,0 z"
         style="fill:#f59d2a;fill-opacity:1;fill-rule:evenodd;stroke:none" />
      <rect
         y="307.95551"
         x="500.80838"
         height="1.5909903"
         width="23.157747"
         id="rect3892"
         style="fill:#f59d2a;fill-opacity:1;fill-rule:evenodd;stroke:none" />
      <rect
         y="285.85843"
         x="588.13605"
         height="2.2980971"
         width="37.830212"
         id="rect3894"
         style="fill:#f59d2a;fill-opacity:1;fill-rule:evenodd;stroke:none" />
      <rect
         y="268.71109"
         x="604.22278"
         height="1.9445436"
         width="38.890873"
         id="rect3896"
         style="fill:#f59d2a;fill-opacity:1;fill-rule:evenodd;stroke:none" />
      <path
         sodipodi:nodetypes="ccccccccccccccccccccccc"
         inkscape:connector-curvature="0"
         id="path3898"
         d="m 554.4601,278.34542 11.57888,-0.35355 9.104,-10.69499 2.82842,-0.0884 7.51301,5.39169 -1.23743,1.94455 -6.36396,-5.65686 -3.00521,2.65165 6.98268,5.3033 -1.32582,1.23744 -7.42463,-5.3033 -2.56326,2.91681 7.18979,5.43459 -0.6901,0.84543 -7.53002,-5.32291 -2.06326,2.66682 7.0559,6.38096 -8.47011,-6.1158 -1.67938,2.03293 4.77297,6.98268 -8.63257,-0.11129 -0.875,-5.25 z"
         style="fill:#f59d2a;fill-opacity:1;stroke:none" />
      <path
         inkscape:connector-curvature="0"
         id="path3900"
         d="m 242.7144,187.83576 5.74524,6.98268 3.18199,-0.44195 0.35355,-1.23743 -5.39169,-7.33624 1.06066,-0.61871 4.68458,6.71751 3.53554,0.53033 0,-2.82843 -5.56847,-7.60139 1.23744,-0.53033 5.56846,7.24784 3.00521,-1.76777 -3.27037,-7.51301 1.32582,-0.79549 3.44715,4.41942 c 0,0 3.35876,0.26516 3.35876,0.88388 0,0.61872 -0.53033,3.53553 -0.53033,3.53553 l -5.65686,4.06587 -0.0884,4.5078 13.16987,15.11441 -15.46796,-13.96536 -9.63433,2.38649 0.53033,-4.77297 -5.3033,-6.36397 z"
         style="fill:#f59d2a;fill-opacity:1;stroke:none" />
      <path
         inkscape:connector-curvature="0"
         id="path3902"
         d="m 502.57614,264.82201 15.99829,0 39.86315,2.82842 8.56242,-6.91325 17.42375,-0.42298 3.8007,6.71752 0.35356,6.45234 -16.17507,16.52863 -13.27794,-0.0255 -13.25,14.25 -6.25,-0.375 15.5,-15.5 16.75,0 15.25,-15.75 -0.40315,-5.49208 -3.66812,-5.34749 -15.07021,0.30936 -8.23352,6.90521 -41.1875,-2.4375 -16.07474,-0.66701 z"
         style="fill:#f59d2a;fill-opacity:1;stroke:none" />
      <path
         sodipodi:nodetypes="cscccc"
         inkscape:connector-curvature="0"
         id="path3904"
         d="m 365.0632,367.52861 c 0,0 7.21171,-15.57007 25.85255,-24.53676 13.07829,-6.29096 42.44972,-42.00384 42.44972,-42.00384 0,0 -23.72199,27.69894 -42.08069,36.2868 -17.63397,4.00298 -36.49395,30.43123 -36.49395,30.43123 z"
         style="fill:#f59d2a;fill-opacity:1;stroke:none" />
      <path
         inkscape:connector-curvature="0"
         id="path3908"
         d="m 584.95408,261.28647 7.42462,-6.71751 6.36397,0.17678 -11.84404,10.42982 z"
         style="fill:#f59d2a;fill-opacity:1;stroke:none" />
    </g>
  </g>
</svg>
