<?xml version="1.0" encoding="UTF-8" standalone="no"?>
<!-- Created with Inkscape (http://www.inkscape.org/) -->

<svg
   version="1.1"
   id="svg1"
   width="2000"
   height="2448"
   viewBox="0 0 2000 2448"
   sodipodi:docname="Coat_of_Arms_of_Lobnya_(Moscow_oblast).png"
   inkscape:version="1.3.2 (091e20e, 2023-11-25, custom)"
   xmlns:inkscape="http://www.inkscape.org/namespaces/inkscape"
   xmlns:sodipodi="http://sodipodi.sourceforge.net/DTD/sodipodi-0.dtd"
   xmlns="http://www.w3.org/2000/svg"
   xmlns:svg="http://www.w3.org/2000/svg">
  <defs
     id="defs1" />
  <sodipodi:namedview
     id="namedview1"
     pagecolor="#ffffff"
     bordercolor="#000000"
     borderopacity="0.25"
     inkscape:showpageshadow="2"
     inkscape:pageopacity="0.0"
     inkscape:pagecheckerboard="0"
     inkscape:deskcolor="#d1d1d1"
     inkscape:zoom="0.25"
     inkscape:cx="734"
     inkscape:cy="1090"
     inkscape:window-width="1920"
     inkscape:window-height="991"
     inkscape:window-x="-9"
     inkscape:window-y="-9"
     inkscape:window-maximized="1"
     inkscape:current-layer="g1" />
  <g
     inkscape:groupmode="layer"
     inkscape:label="Image"
     id="g1">
    <path
       d="m 602.53428,2275.2723 c 203.90981,0.4772 372.31205,75.3392 397.46732,172.7596 25.1457,-97.4204 193.5478,-172.7596 397.4576,-172.7596 l 464.3655,-1.0863 c 76.2892,0 138.1586,-61.7725 138.1586,-137.9337 V 0.00412656 H 4.2854151e-4 V 2136.2523 c 0,76.1612 61.85891545849,137.9337 138.14881145849,137.9337 l 464.36543,1.0863 z"
       id="path2"
       style="display:inline;fill:#000000;fill-opacity:1;stroke-width:9.796;stroke-dasharray:none" />
    <path
       d="m 1399.8307,2258.03 c -197.784,0 -297.2253,40.2995 -391.4148,119.2694 l -0.089,-2354.453575 h 975.5277 V 2139.0371 c 0,76.1612 -64.5134,117.9066 -140.8033,117.9066 L 1399.85,2258.03 Z"
       id="path8"
       style="display:inline;opacity:1;fill:#da251d;fill-opacity:1;stroke-width:9.79571"
       sodipodi:nodetypes="scccsccs" />
    <path
       d="m 602.53428,2258.03 c 197.78393,0 294.98872,40.2995 389.17825,119.2694 l -0.01,-2354.453575 -973.192449,0 V 2139.0371 c 0,76.1612 64.513324,117.9066 140.803219,117.9066 l 443.20137,1.0863 z"
       id="path7"
       style="display:inline;opacity:1;fill:#0094de;fill-opacity:1;stroke-width:9.79571"
       sodipodi:nodetypes="scccsccs" />
    <path
       fill="#ffffff"
       d="m 194.45278,1817.9769 c 7.63406,-7.6339 15.26815,-19.085 19.08518,-26.7193 v 0 0 0 0 c 53.43852,68.7066 122.14517,110.6942 198.48589,110.6942 72.52369,0 141.23035,-41.9876 194.66885,-110.6942 7.63408,7.6343 15.26815,15.2682 22.90224,26.7193 v 0 c 49.62145,53.4384 106.87699,83.9749 175.58365,83.9749 64.88952,0 122.14507,-30.5365 171.76661,-83.9749 v 0 c 7.634,-11.4511 15.26822,-19.085 22.90218,-26.7193 v 0 c 53.43842,68.7066 122.14502,110.6942 194.66882,110.6942 76.3409,0 145.0476,-41.9876 198.4861,-110.6942 7.6339,7.6343 11.451,15.2682 19.0849,26.7193 v 0 c 49.6217,53.4384 110.6944,83.9749 175.5838,83.9749 64.8896,0 125.9622,-30.5365 175.5838,-83.9749 7.634,-7.6339 15.268,-19.085 22.9022,-26.7193 v 53.4387 c -57.2556,61.0727 -125.9623,99.2428 -198.486,99.2428 -72.5238,0 -141.2304,-38.1701 -194.6687,-99.2428 -57.2557,61.0727 -122.1452,99.2428 -198.4861,99.2428 -72.5238,0 -141.2304,-38.1701 -194.66882,-99.2428 v 0 c -53.4384,61.0727 -122.14505,99.2428 -194.66879,99.2428 -76.34071,0 -145.04737,-38.1701 -198.48589,-99.2428 -53.4385,61.0727 -122.14516,99.2428 -194.66885,99.2428 -76.34072,0 -141.23033,-38.1701 -198.48589,-99.2428 z"
       id="path6"
       style="display:inline;stroke:#000000;stroke-width:32;stroke-dasharray:none;stroke-opacity:1;paint-order:stroke markers fill"
       sodipodi:nodetypes="cscccsscsssssssscssscccscsssscscc" />
    <g
       id="g2"
       transform="matrix(0.94751691,0,0,0.94751691,25.979071,-4.3734785)">
      <path
         fill="#000000"
         d="m 996.10906,1298.2907 c -45.45295,16.5285 -95.03808,37.1889 -144.62321,61.9815 -53.71719,28.9248 -107.43442,57.8494 -161.15164,99.1702 l -20.66047,12.3963 12.39628,-20.6604 c 24.79257,-37.1888 41.32095,-70.2455 53.71723,-103.3024 8.26418,-24.7925 16.52836,-45.4529 28.92464,-70.2456 v 0 c 12.39629,-20.6603 37.18886,-49.585 78.50986,-82.6417 28.92449,-24.7926 66.11333,-49.5851 115.69846,-78.5099 -28.92449,-20.6604 -57.84923,-37.1888 -86.77397,-53.7173 -57.84922,-33.0567 -111.56642,-66.11334 -152.88737,-103.30219 -41.32095,24.79257 -82.64187,45.45299 -128.09493,61.98139 -45.45302,20.6605 -95.03815,33.0567 -144.62328,45.453 -49.58513,20.6604 -99.17026,41.321 -161.15167,70.2455 -57.84934,24.7926 -123.96285,53.7173 -194.208442,86.774 l -20.660462,8.2643 12.396281,-12.3962 c 33.056743,-41.3211 66.113493,-78.5099 99.170263,-107.4347 33.05675,-24.7925 70.24559,-49.5851 103.30236,-61.9814 148.75539,-66.11332 293.37867,-148.75537 442.13406,-247.92563 v 0 c 16.52838,-8.26411 28.92466,-12.39628 41.32095,-12.39628 12.39628,0 24.79256,8.26435 41.32095,24.79256 v 0 c 49.58501,66.1136 115.69859,115.69872 202.47255,152.88757 v 0 0 c 8.2641,-8.26411 16.5284,-16.52846 16.5284,-16.52846 57.8493,-49.58513 111.5665,-99.17025 161.1517,-161.15167 53.7173,-57.84924 107.4343,-119.83064 157.0195,-190.07616 h 4.1322 v 0 c 66.1135,8.2641 148.7554,12.39627 243.7935,12.39627 99.1702,0 210.7367,-4.13217 330.5676,-16.52845 h 12.3963 l -8.2643,8.2641 c -37.1889,45.45321 -95.0381,74.3777 -181.8121,90.90616 -82.6418,20.66039 -198.3406,33.05667 -363.6244,45.45296 -20.6604,45.45319 -53.717,90.90615 -90.9059,140.49128 -37.1888,49.58512 -78.5099,99.17025 -128.095,152.88755 l -4.1321,4.1319 c 28.9247,-16.5282 57.8494,-28.9245 90.9061,-45.45291 41.321,-16.52847 82.6418,-37.18886 132.2269,-53.71731 l 12.3963,-4.13193 -8.2641,12.39628 c -57.8492,78.50957 -115.6987,144.62317 -181.8123,202.47247 -66.1134,57.8495 -136.3592,107.4346 -210.73674,148.7553 z"
         id="path2-9"
         style="stroke-width:31.66170406;stroke:#000000;stroke-opacity:1;stroke-dasharray:none" />
      <path
         fill="#ffffff"
         d="m 991.97713,1294.1589 c -90.90615,28.9245 -194.20847,82.6417 -305.77501,161.1517 41.32093,-61.9815 53.71721,-119.831 82.64188,-173.548 24.79256,-37.1889 86.77402,-103.3025 198.34056,-165.2839 C 880.41059,1058.6295 785.37238,1017.3084 723.39097,951.19486 636.617,1000.78 545.71092,1037.9688 442.40855,1062.7614 c -90.90607,37.1888 -210.73679,90.9062 -355.360105,157.0198 61.981415,-82.6421 132.227025,-136.3592 202.472615,-165.2839 148.7554,-66.11359 293.3787,-148.7554 438.00199,-247.92565 33.05677,-16.52846 53.71723,-16.52846 78.50979,8.2641 49.58518,70.24577 115.69853,119.8309 202.47246,157.01975 4.1322,0 -4.1319,8.2641 -8.2641,12.39628 -4.13214,4.13193 -4.13214,4.13193 0,4.13193 0,-4.13193 28.9247,-33.05668 33.0566,-33.05668 111.5666,-95.03807 214.8691,-214.86896 318.1715,-351.22808 132.2268,20.66064 342.9637,16.52847 574.3611,-4.13192 -74.3777,90.9059 -214.869,111.56654 -541.3045,136.3591 -49.5851,86.77398 -119.8306,185.94424 -223.133,293.37857 -4.1323,4.1322 -61.9815,61.9814 -66.1136,66.1136 0,0 4.1321,0 4.1321,0 4.1322,-4.1322 45.453,-45.4532 49.5851,-45.4532 70.2458,-37.1888 148.7554,-74.37768 235.5294,-107.43434 -111.5665,152.88754 -243.7935,268.58604 -392.54877,351.22814 z"
         id="path3"
         style="stroke-width:5.27695068;stroke-dasharray:none;stroke:#ffffff;stroke-opacity:1;paint-order:stroke markers fill" />
      <path
         fill="#000000"
         d="m 814.29702,1285.8945 c -8.26418,8.2644 -8.26418,20.6606 -4.13207,20.6606 4.13207,4.132 12.39628,0 20.66046,-8.2644 8.26416,-8.2641 8.26416,-20.6604 4.1321,-24.7925 -4.1321,0 -16.52838,4.1321 -20.66049,12.3963 z"
         id="path4"
         style="stroke-width:4.13211" />
      <path
         fill="#000000"
         d="m 834.95751,1207.3849 c 20.66051,16.5282 41.3209,33.0566 57.84936,49.5851 16.52821,20.6603 44.94201,64.0807 41.32077,61.9814 h -4.13192 c -12.39629,-20.6607 -24.79257,-41.3211 -41.32103,-57.8495 -16.52845,-16.5282 -37.18884,-33.0566 -57.84928,-49.5851 z"
         id="path5"
         style="stroke:#000000;stroke-width:15.83085203;stroke-linecap:square;stroke-dasharray:none;stroke-opacity:1;paint-order:fill markers stroke"
         sodipodi:nodetypes="ccccscc" />
    </g>
  </g>
</svg>
